HIERARCHY
ROOT root
{
	OFFSET	0	13.1	24.9
	CHANNELS 6  Xposition Yposition Zposition Xrotation Yrotation Zrotation
	JOINT spine_1
	{
		OFFSET	0	9.99999	0
		CHANNELS 3  Xrotation Yrotation Zrotation
		JOINT spine_2
		{
			OFFSET	0	112	-10
			CHANNELS 3  Xrotation Yrotation Zrotation
			JOINT spine_3
			{
				OFFSET	0	206.5	19.3
				CHANNELS 3  Xrotation Yrotation Zrotation
				JOINT spine_4
				{
					OFFSET	0	110.4	14.6
					CHANNELS 3  Xrotation Yrotation Zrotation
					JOINT neck_1
					{
						OFFSET	0	71.8	-50.3
						CHANNELS 3  Xrotation Yrotation Zrotation
						JOINT neck_2
						{
							OFFSET	0	86.2	-25.8
							CHANNELS 3  Xrotation Yrotation Zrotation
							JOINT head_ee
							{
								OFFSET	0	179.8	-8.7
								CHANNELS 3  Xrotation Yrotation Zrotation
								End Site
								{
									OFFSET	1	0	0
								}
							}
						}
					}
					JOINT left_clavicle
					{
						OFFSET	-43.2	22.4	-70.8
						CHANNELS 3  Xrotation Yrotation Zrotation
						JOINT left_shoulder
						{
							OFFSET	-93.9	-5.79999	48.7
							CHANNELS 3  Xrotation Yrotation Zrotation
							JOINT left_elbow
							{
								OFFSET	-291.4	-30.8	15.2
								CHANNELS 3  Xrotation Yrotation Zrotation
								JOINT left_lowarm_twist
								{
									OFFSET	-110.7	-3.89999	13.6
									CHANNELS 3  Xrotation Yrotation Zrotation
									JOINT left_hand
									{
										OFFSET	-110.7	-3.89999	13.6
										CHANNELS 3  Xrotation Yrotation Zrotation
										JOINT left_ee
										{
											OFFSET	-80.8	-5.10001	12.1
											CHANNELS 3  Xrotation Yrotation Zrotation
											End Site
											{
												OFFSET	1	0	0
											}
										}
									}
								}
							}
						}
					}
					JOINT right_clavicle
					{
						OFFSET	43.2	22.4	-70.8
						CHANNELS 3  Xrotation Yrotation Zrotation
						JOINT right_shoulder
						{
							OFFSET	93.9	-5.79999	48.7
							CHANNELS 3  Xrotation Yrotation Zrotation
							JOINT right_elbow
							{
								OFFSET	291.4	-30.8	15.2
								CHANNELS 3  Xrotation Yrotation Zrotation
								JOINT right_lowarm_twist
								{
									OFFSET	110.7	-3.89999	13.6
									CHANNELS 3  Xrotation Yrotation Zrotation
									JOINT right_hand
									{
										OFFSET	110.7	-3.89999	13.6
										CHANNELS 3  Xrotation Yrotation Zrotation
										JOINT right_ee
										{
											OFFSET	80.8	-5.10001	12.1
											CHANNELS 3  Xrotation Yrotation Zrotation
											End Site
											{
												OFFSET	1	0	0
											}
										}
									}
								}
							}
						}
					}
				}
			}
		}
	}
	JOINT left_hip
	{
		OFFSET	-82.8	-127.5	0.300001
		CHANNELS 3  Xrotation Yrotation Zrotation
		JOINT left_knee
		{
			OFFSET	-28.2	-396.7	2.2
			CHANNELS 3  Xrotation Yrotation Zrotation
			JOINT left_ankle
			{
				OFFSET	-11.7	-411.3	35.4
				CHANNELS 3  Xrotation Yrotation Zrotation
				JOINT left_toes
				{
					OFFSET	0	-60	-88.6
					CHANNELS 3  Xrotation Yrotation Zrotation
					JOINT left_foot_ee
					{
						OFFSET	-22.5	-16.5	-42.2
						CHANNELS 3  Xrotation Yrotation Zrotation
						End Site
						{
							OFFSET	1	0	0
						}
					}
				}
			}
		}
	}
	JOINT right_hip
	{
		OFFSET	82.8	-127.5	0.300001
		CHANNELS 3  Xrotation Yrotation Zrotation
		JOINT right_knee
		{
			OFFSET	28.2	-396.7	2.2
			CHANNELS 3  Xrotation Yrotation Zrotation
			JOINT right_ankle
			{
				OFFSET	11.7	-411.3	35.4
				CHANNELS 3  Xrotation Yrotation Zrotation
				JOINT right_toes
				{
					OFFSET	0	-60	-88.6
					CHANNELS 3  Xrotation Yrotation Zrotation
					JOINT right_foot_ee
					{
						OFFSET	22.5	-16.5	-42.2
						CHANNELS 3  Xrotation Yrotation Zrotation
						End Site
						{
							OFFSET	1	0	0
						}
					}
				}
			}
		}
	}
}
MOTION
Frames: 6
Frame Time: 0.02
1772.36 743.958 -484.165 61.1244 -87.0913 62.0836 -0.71103 0.0623261 0.110979 -0.711025 0.0551379 0.11472 -0.710907 0.0282573 0.124106 -0.710926 0.047503 0.118086 -10.3445 3.36031 -1.96832 -10.3523 7.65258 -1.05934 -0.0 0.0 -0.0 -1.36178 0.619587 -2.54184 -1.3346 -25.9865 68.0661 1.7217 -40.4568 0.634474 23.2939 0.224518 -2.94669 0.406065 6.98137 5.56046 -0.0 0.0 -0.0 8.7332 20.8625 -16.518 -21.1416 22.837 -63.4187 0.70525 19.2574 -0.119649 -3.8635 0.152045 -0.469762 2.01804 -0.842132 -13.9458 0.0 0.0 0.0 6.50156 27.3866 -10.2461 -6.37254 0.209434 0.955071 0.875734 -5.30215 -0.131619 39.7726 -0.0 -0.0 -0.0 0.0 -0.0 0.33817 11.3418 -8.73329 -7.29137 -0.230818 -1.09445 18.8301 9.47464 2.69802 -23.0107 0.0 0.0 0.0 0.0 0.0 
1791.59 742.862 -485.101 48.7033 -86.1458 49.2909 -0.75488 0.0891608 0.147515 -0.754872 0.0795934 0.15289 -0.754646 0.043489 0.16679 -0.754678 0.0692846 0.157829 -9.91346 3.34564 -1.96851 -9.91813 7.62787 -1.09267 -0.0 0.0 -0.0 -1.31804 0.814989 -2.42965 -2.92845 -26.016 67.966 1.69737 -40.0547 0.61875 24.3024 0.207045 -3.07433 0.64124 5.99425 6.71104 -0.0 0.0 -0.0 9.03467 22.1416 -17.0808 -20.1555 24.5911 -61.9519 0.68401 18.7184 -0.112738 -3.31129 0.128375 -0.403253 2.18054 -2.08711 -15.5539 0.0 0.0 0.0 6.55682 27.3857 -10.2748 -7.31573 0.231355 1.09815 4.7507 -3.64769 -0.70152 39.6546 -0.0 -0.0 -0.0 0.0 -0.0 -0.368842 13.0864 -8.48161 -7.6898 -0.239395 -1.15499 19.2793 10.229 2.76735 -23.0354 0.0 0.0 0.0 0.0 0.0 
1799.16 740.83 -484.526 42.7405 -85.2265 42.8829 -0.750372 0.0690518 0.14491 -0.750362 0.0596909 0.14901 -0.750195 0.0249653 0.158568 -0.750226 0.0496948 0.152635 -8.56106 3.38318 -1.76425 -8.5588 7.56147 -0.974921 -0.0 0.0 -0.0 -1.62899 2.22397 -2.81681 -4.10782 -25.9636 67.8924 1.77754 -41.3615 0.671042 25.2455 0.188673 -3.1934 0.830112 5.30491 7.68583 -0.0 0.0 -0.0 9.06257 22.5344 -17.1088 -19.8314 26.5456 -60.7645 0.675948 18.5129 -0.110164 -3.79706 0.149164 -0.461772 2.27104 -3.33173 -16.659 0.0 0.0 0.0 6.53229 27.3855 -10.2801 -8.73892 0.259963 1.31467 7.08197 -3.76985 -1.03843 40.1473 -0.0 -0.0 -0.0 0.0 -0.0 -1.02919 14.3126 -8.41731 -10.2141 -0.28393 -1.53975 20.6554 10.9651 2.95622 -22.5861 0.0 0.0 0.0 0.0 0.0 
1818.77 736.88 -482.593 62.1301 -84.6366 62.0828 -1.1738 0.219964 0.228439 -1.1738 0.204982 0.241972 -1.17289 0.143793 0.282651 -1.17296 0.186628 0.256395 -7.64481 3.49915 -1.6649 -7.63767 7.70519 -0.913051 -0.0 0.0 -0.0 -1.8836 3.69563 -3.07092 -4.97222 -25.8938 67.8507 1.78995 -41.5593 0.679259 25.9612 0.173425 -3.28355 0.908081 4.98766 8.07774 -0.0 0.0 -0.0 9.06088 22.6777 -17.0925 -19.7569 28.0202 -59.9939 0.67035 18.3699 -0.108394 -4.39654 0.175502 -0.533746 2.34597 -4.00759 -17.4346 0.0 0.0 0.0 8.12122 27.0862 -10.9726 -10.4699 0.287495 1.57884 8.72396 -3.86517 -1.27241 40.1532 -0.0 -0.0 -0.0 0.0 -0.0 -2.3098 15.2497 -8.40794 -12.1682 -0.30674 -1.83871 21.5731 11.4807 3.08176 -22.4461 0.0 0.0 0.0 0.0 0.0 
1824.93 739.501 -486.415 69.0097 -84.5673 68.4419 -1.44283 0.224955 0.27738 -1.44281 0.206849 0.291132 -1.4417 0.132742 0.331547 -1.44181 0.183438 0.306422 -8.05962 3.07434 -2.83502 -8.03863 7.74016 -2.13845 -0.0 0.0 -0.0 -2.09319 4.79361 -3.28611 -5.60169 -26.0682 68.3216 1.78316 -41.4512 0.674758 26.5176 0.160793 -3.3535 0.680203 4.89991 6.53286 -0.0 0.0 -0.0 9.54662 23.7935 -18.0723 -16.6613 29.2209 -58.0626 0.632676 17.4016 -0.0968228 -4.89107 0.197797 -0.592913 2.30815 -6.54468 -18.1124 0.0 0.0 0.0 11.4531 25.3666 -10.3637 -15.1055 0.321818 2.28907 10.821 -2.8266 -1.56057 40.1955 -0.0 -0.0 -0.0 0.0 -0.0 -4.59059 15.7883 -7.50371 -12.9882 -0.313272 -1.96435 24.0625 10.2028 3.3669 -22.6348 0.0 0.0 0.0 0.0 0.0 
1829.44 743.843 -488.385 74.5274 -84.3805 73.6567 -1.6216 0.249604 0.435154 -1.62152 0.221409 0.450154 -1.61964 0.108054 0.489882 -1.61993 0.184065 0.46667 -8.35426 2.78485 -3.65796 -8.31912 7.77141 -2.99692 -0.0 0.0 -0.0 -2.3347 5.66858 -3.58679 -6.31701 -26.0982 68.4907 1.76508 -41.1618 0.662824 26.9068 0.151554 -3.40236 0.51407 4.88427 5.42871 -0.0 0.0 -0.0 9.78113 24.6032 -18.5179 -14.4306 30.1294 -56.4418 0.606642 16.7263 -0.0891835 -5.24329 0.213988 -0.634937 2.28214 -8.32155 -18.57 0.0 0.0 0.0 13.7804 24.1861 -9.81725 -18.3904 0.311322 2.7929 12.2958 -2.10833 -1.75924 40.2126 -0.0 -0.0 -0.0 0.0 -0.0 -6.21711 16.1422 -6.86548 -13.5684 -0.316807 -2.05329 25.8005 9.27411 3.55751 -22.7783 0.0 0.0 0.0 0.0 0.0 
